<svg width="14" height="11" viewBox="0 0 14 11" fill="none" xmlns="http://www.w3.org/2000/svg">
<path d="M13.7333 1.76883L12.6768 0.682382C12.6348 0.634362 12.5688 0.610352 12.5088 0.610352C12.4427 0.610352 12.3827 0.634361 12.3407 0.682382L5.01768 8.05942L2.35258 5.39433C2.30457 5.34631 2.24454 5.32229 2.18452 5.32229C2.12449 5.32229 2.06447 5.34631 2.01645 5.39433L0.948006 6.46277C0.851967 6.55881 0.851967 6.70887 0.948006 6.80491L4.30939 10.1663C4.52548 10.3824 4.78959 10.5084 5.01168 10.5084C5.32981 10.5084 5.60593 10.2743 5.70797 10.1783C5.70797 10.1783 5.70797 10.1783 5.71397 10.1783L13.7393 2.11097C13.8233 2.00893 13.8233 1.85887 13.7333 1.76883Z" fill="#2067E4"/>
</svg>
