<svg width="29" height="25" viewBox="0 0 29 25" fill="none" xmlns="http://www.w3.org/2000/svg">
<path d="M26.5266 3.96298C26.5266 3.12025 25.931 2.50563 25.0819 2.50563H12.7706C12.5931 2.50563 12.4981 2.46762 12.384 2.35357L10.9584 0.927903L10.9457 0.915231C10.6352 0.623761 10.3818 0.478027 9.84953 0.478027H3.76037C2.88597 0.478027 2.19531 1.13066 2.19531 1.93537V6.56085H26.5266V3.96298Z" fill="#FF7373"/>
<path d="M2.19488 8.33496C1.94143 8.33496 1.745 8.33496 1.66897 8.33496C0.857926 8.33496 0.0658914 8.65811 0.179945 9.87467C0.293998 11.0912 1.66897 23.2252 1.66897 23.2252C1.84005 24.3531 2.41031 24.8093 3.25304 24.8093H25.5884C26.3931 24.8093 26.919 24.315 27.0457 23.2252C27.0457 23.2252 28.4524 11.5094 28.5411 10.2042C28.6298 8.90523 27.9772 8.33496 27.0457 8.33496C26.976 8.33496 26.7733 8.33496 26.5198 8.33496H2.19488Z" fill="#FF7373"/>
</svg>
