<svg width="29" height="25" viewBox="0 0 29 25" fill="none" xmlns="http://www.w3.org/2000/svg">
<path d="M26.5266 3.66903C26.5266 2.82631 25.931 2.21169 25.0819 2.21169H12.7706C12.5931 2.21169 12.4981 2.17367 12.384 2.05962L10.9584 0.633957L10.9457 0.621285C10.6352 0.329815 10.3818 0.184082 9.84953 0.184082H3.76037C2.88597 0.184082 2.19531 0.836718 2.19531 1.64143V6.26691H26.5266V3.66903Z" fill="#319E67"/>
<path d="M2.19488 8.04102C1.94143 8.04102 1.745 8.04102 1.66897 8.04102C0.857926 8.04102 0.0658914 8.36417 0.179945 9.58073C0.293998 10.7973 1.66897 22.9313 1.66897 22.9313C1.84005 24.0591 2.41031 24.5153 3.25304 24.5153H25.5884C26.3931 24.5153 26.919 24.0211 27.0457 22.9313C27.0457 22.9313 28.4524 11.2155 28.5411 9.91022C28.6298 8.61128 27.9772 8.04102 27.0457 8.04102C26.976 8.04102 26.7733 8.04102 26.5198 8.04102H2.19488Z" fill="#319E67"/>
</svg>
