<svg width="36" height="31" viewBox="0 0 36 31" fill="none" xmlns="http://www.w3.org/2000/svg">
<path d="M32.6107 5.12344C32.6107 4.08511 31.8768 3.32783 30.8307 3.32783H15.6617C15.4431 3.32783 15.326 3.28099 15.1855 3.14046L13.4289 1.38389L13.4133 1.36827C13.0308 1.00915 12.7185 0.82959 12.0627 0.82959H4.56016C3.4828 0.829589 2.63184 1.63371 2.63184 2.6252V8.3243H32.6107V5.12344Z" fill="#1F66E2"/>
<path d="M2.63192 10.5103C2.31964 10.5103 2.07762 10.5103 1.98394 10.5103C0.984643 10.5103 0.00876831 10.9084 0.149295 12.4074C0.28982 13.9063 1.98394 28.8567 1.98394 28.8567C2.19473 30.2463 2.89736 30.8084 3.93569 30.8084H31.4553C32.4468 30.8084 33.0948 30.1995 33.2509 28.8567C33.2509 28.8567 34.9841 14.4216 35.0934 12.8133C35.2027 11.2129 34.3986 10.5103 33.2509 10.5103C33.1651 10.5103 32.9152 10.5103 32.603 10.5103H2.63192Z" fill="#1F66E2"/>
</svg>
