<svg width="22" height="26" viewBox="0 0 22 26" fill="none" xmlns="http://www.w3.org/2000/svg">
<path d="M20.6635 9.10112C20.1315 8.37556 19.3898 7.52745 18.5754 6.71298C17.7609 5.89851 16.9128 5.15695 16.1872 4.62487C14.9519 3.719 14.3527 3.61423 14.0094 3.61423H5.19496C4.13833 3.61423 3.27878 4.47383 3.27878 5.53041V23.1593C3.27878 24.2159 4.13833 25.0755 5.19496 25.0755H19.7579C20.8145 25.0755 21.6741 24.2159 21.6741 23.1593V11.279C21.6741 10.9357 21.5694 10.3364 20.6635 9.10112ZM17.4914 7.79692C18.2268 8.53225 18.804 9.19568 19.2299 9.74601H15.5423V6.05865C16.0928 6.48452 16.7562 7.06173 17.4914 7.79692ZM20.1412 23.1593C20.1412 23.367 19.9656 23.5425 19.7579 23.5425H5.19496C4.98725 23.5425 4.81172 23.367 4.81172 23.1593V5.53041C4.81172 5.3227 4.98725 5.14717 5.19496 5.14717C5.19496 5.14717 14.0083 5.14713 14.0094 5.14717V10.5125C14.0094 10.9358 14.3525 11.279 14.7759 11.279H20.1412V23.1593ZM13.1213 1.55903C11.886 0.653107 11.2868 0.54834 10.9435 0.54834H2.12907C1.07249 0.54834 0.212891 1.40794 0.212891 2.46452V20.0934C0.212891 21.0187 0.872248 21.793 1.74583 21.971V2.46452C1.74583 2.25681 1.92136 2.08128 2.12907 2.08128H13.7909C13.5598 1.89158 13.3351 1.71577 13.1213 1.55903Z" fill="#007E3F"/>
</svg>
