<svg width="25" height="25" viewBox="0 0 25 25" fill="none" xmlns="http://www.w3.org/2000/svg">
<circle cx="12.5" cy="12.5" r="12" stroke="white"/>
<path d="M12.4083 9.54969C10.7842 9.54969 9.47412 10.8597 9.47412 12.4839C9.47412 14.108 10.7842 15.418 12.4083 15.418C14.0324 15.418 15.3425 14.108 15.3425 12.4839C15.3425 10.8597 14.0324 9.54969 12.4083 9.54969ZM12.4083 14.3915C11.3587 14.3915 10.5007 13.536 10.5007 12.4839C10.5007 11.4317 11.3562 10.5763 12.4083 10.5763C13.4604 10.5763 14.3159 11.4317 14.3159 12.4839C14.3159 13.536 13.4579 14.3915 12.4083 14.3915ZM16.1469 9.42967C16.1469 9.81017 15.8404 10.1141 15.4625 10.1141C15.082 10.1141 14.7781 9.80761 14.7781 9.42967C14.7781 9.05173 15.0845 8.74528 15.4625 8.74528C15.8404 8.74528 16.1469 9.05173 16.1469 9.42967ZM18.0902 10.1243C18.0468 9.2075 17.8374 8.39543 17.1658 7.72637C16.4967 7.05731 15.6847 6.84791 14.7679 6.80194C13.823 6.74831 10.991 6.74831 10.0461 6.80194C9.13193 6.84535 8.31986 7.05475 7.64824 7.72382C6.97663 8.39288 6.76978 9.20495 6.72381 10.1217C6.67019 11.0666 6.67019 13.8986 6.72381 14.8435C6.76723 15.7602 6.97663 16.5723 7.64824 17.2414C8.31986 17.9104 9.12937 18.1198 10.0461 18.1658C10.991 18.2194 13.823 18.2194 14.7679 18.1658C15.6847 18.1224 16.4967 17.913 17.1658 17.2414C17.8348 16.5723 18.0443 15.7602 18.0902 14.8435C18.1438 13.8986 18.1438 11.0691 18.0902 10.1243ZM16.8696 15.8573C16.6704 16.3578 16.2848 16.7434 15.7817 16.9451C15.0284 17.2439 13.2408 17.175 12.4083 17.175C11.5758 17.175 9.78567 17.2414 9.03489 16.9451C8.53437 16.7459 8.14876 16.3603 7.94702 15.8573C7.64824 15.1039 7.71719 13.3164 7.71719 12.4839C7.71719 11.6514 7.6508 9.86124 7.94702 9.11046C8.14621 8.60994 8.53181 8.22434 9.03489 8.0226C9.78822 7.72382 11.5758 7.79276 12.4083 7.79276C13.2408 7.79276 15.0309 7.72637 15.7817 8.0226C16.2822 8.22178 16.6678 8.60739 16.8696 9.11046C17.1683 9.86379 17.0994 11.6514 17.0994 12.4839C17.0994 13.3164 17.1683 15.1065 16.8696 15.8573Z" fill="white"/>
</svg>
