<svg width="26" height="24" viewBox="0 0 26 24" fill="none" xmlns="http://www.w3.org/2000/svg">
<path d="M23.7037 10.1673C23.1852 9.49825 22.568 9.04281 21.9671 8.73312C21.91 8.70345 21.8529 8.67526 21.796 8.6484C21.791 8.64596 21.7861 8.64364 21.7814 8.64157V3.51156C21.408 3.30636 20.9311 3.06173 20.3599 2.81051C18.7647 2.10983 16.4333 1.36215 13.5605 1.29879C10.331 1.22726 7.71653 2.0494 5.99907 2.79843C5.41179 3.05465 4.92936 3.30258 4.56297 3.50363V9.24801C4.45781 9.2911 4.3502 9.33883 4.24119 9.39218C3.63774 9.68637 2.98887 10.1439 2.45781 10.8567C2.44932 10.8679 2.44053 10.8792 2.43229 10.891C1.43498 12.2537 1.08183 14.2376 1.96196 15.9557C3.01817 18.0175 5.20835 18.4416 5.47093 18.4879L7.24406 18.4759C8.04216 19.4568 9.11039 20.5404 10.5125 21.5212C11.4448 22.1737 12.3471 22.6563 13.1502 23.016C14.0596 22.6408 15.1824 22.0714 16.3448 21.1988C17.5751 20.2754 18.4971 19.2774 19.1733 18.3941L21.3159 18.3795C21.8617 18.1942 23.1286 17.6764 23.9929 16.3897C25.2397 14.5334 25.0711 11.934 23.7037 10.1673ZM5.99907 4.43356C7.71653 3.686 10.3255 2.86886 13.5459 2.94003C16.4274 3.00363 18.7644 3.7557 20.3599 4.45846V8.17709C19.9382 8.09298 19.6242 8.07455 19.5071 8.0693C19.2008 7.48568 18.8254 6.95321 18.3945 6.48043C17.0135 4.96346 15.0617 4.0588 12.9955 4.0538C10.8706 4.04818 8.87272 4.99484 7.4835 6.56661C6.89732 7.22958 6.41905 8.00387 6.0861 8.8652C6.06443 8.86727 6.03514 8.86984 5.99907 8.87399V4.43356ZM15.6379 20.0846C14.7486 20.7179 13.8896 21.1317 13.1942 21.404C12.5799 21.1429 11.8896 20.7923 11.1763 20.3187C10.2798 19.7235 9.56205 19.0761 8.99406 18.4638L17.5001 18.4055C17.0198 18.9513 16.4078 19.536 15.6379 20.0846ZM22.376 15.4516C21.6495 16.4322 20.531 16.6843 20.1583 16.7514C15.576 16.7994 10.9941 16.8481 6.41172 16.8962C5.06181 16.9565 3.82908 16.2467 3.28343 15.1119C2.52873 13.5422 3.51115 12.0378 3.62602 11.8678C3.80009 11.6108 4.00731 11.3819 4.24119 11.1838C4.34349 11.0968 4.45103 11.0158 4.56297 10.9408C4.98796 10.6562 5.4774 10.4602 5.99907 10.3646C6.44542 10.2829 6.91526 10.275 7.38829 10.3482C7.5521 9.62789 7.83433 8.96896 8.20713 8.38839C9.12736 6.95077 10.5963 5.99386 12.1678 5.77328C12.169 5.77328 12.1701 5.77328 12.1707 5.77291C12.574 5.71664 12.9844 5.70883 13.3934 5.75387C14.9591 5.92648 16.3752 6.85726 17.2759 8.23251C17.574 8.68759 17.816 9.19174 17.9878 9.73324C18.792 9.52206 19.6178 9.54952 20.3599 9.79196C20.8954 9.96688 21.3874 10.2541 21.796 10.6439C21.8549 10.7002 21.9121 10.7583 21.9671 10.8186C23.099 12.0545 23.3841 14.0914 22.376 15.4516Z" fill="#2067E4" stroke="#2067E4"/>
</svg>
