<svg width="25" height="25" viewBox="0 0 25 25" fill="none" xmlns="http://www.w3.org/2000/svg">
<path d="M19.6239 8.11651C19.1058 8.34629 18.549 8.50161 17.9645 8.57145C18.561 8.21388 19.0192 7.64767 19.2349 6.97296C18.6766 7.3041 18.0583 7.54453 17.4001 7.67408C16.8731 7.11255 16.1222 6.76172 15.2912 6.76172C13.6956 6.76172 12.4019 8.05528 12.4019 9.65088C12.4019 9.87733 12.4275 10.0978 12.4767 10.3093C10.0755 10.1888 7.94652 9.03858 6.52151 7.29051C6.2728 7.71724 6.1303 8.21355 6.1303 8.74306C6.1303 9.74547 6.64036 10.6298 7.41563 11.148C6.94201 11.1329 6.4965 11.003 6.107 10.7866C6.10672 10.7986 6.10672 10.8107 6.10672 10.8229C6.10672 12.2228 7.10267 13.3905 8.42437 13.656C8.18196 13.722 7.92668 13.7574 7.66318 13.7574C7.477 13.7574 7.29601 13.7392 7.11956 13.7055C7.48726 14.8533 8.55425 15.6887 9.81857 15.712C8.82975 16.4869 7.58394 16.9488 6.23025 16.9488C5.99703 16.9488 5.76706 16.9351 5.54102 16.9084C6.81964 17.7282 8.33836 18.2065 9.96999 18.2065C15.2844 18.2065 18.1905 13.8039 18.1905 9.98589C18.1905 9.86063 18.1877 9.73603 18.1821 9.61209C18.7468 9.20474 19.2366 8.69588 19.6239 8.11651Z" fill="white"/>
<circle cx="12.5" cy="12.5" r="12" stroke="white"/>
</svg>
